<?xml version="1.0" encoding="UTF-8"?>
<!-- Created with Inkscape (http://www.inkscape.org/) -->
<svg width="36.4px" height="23.6px" version="1.1" viewBox="0 0 181.82 118.28" xml:space="preserve"
    xmlns="http://www.w3.org/2000/svg">
    <path
        d="m144.03 118.13c-15.022-1.8865-26.729-12.948-29.566-27.936-0.57179-3.02-0.5658-8.6547 0.0126-11.872 1.7688-9.8375 7.9537-18.567 16.685-23.548 2.5607-1.461 5.5045-2.6228 8.8532-3.494 3.3942-0.88305 9.5495-1.1178 13.27-0.50599 12.571 2.0668 22.8 10.717 26.788 22.652 1.2678 3.7948 1.7461 6.8092 1.7461 11.005 0 5.7044-1.1415 10.439-3.7336 15.485-4.754 9.2552-13.942 16.081-24.011 17.836-2.9112 0.50767-7.6005 0.68357-10.044 0.37675zm7.5427-13.794 0.61237-0.57529v-15.254h15.307l0.54837-0.69714c0.47867-0.60852 0.54837-1.0641 0.54837-3.5839 0-2.7122-0.0393-2.926-0.64943-3.5362l-0.64943-0.64943h-15.105v-7.5113c0-9.4338 0.32531-8.7606-4.2333-8.7606-4.5586 0-4.2333-0.6732-4.2333 8.7606v7.5113h-15.105l-0.64943 0.64943c-0.61242 0.61242-0.64943 0.81878-0.64943 3.621 0 2.6868 0.0551 3.0302 0.57528 3.5839l0.57529 0.61236h15.254v7.5897c0 9.4458-0.30057 8.8145 4.1963 8.8145 2.7629 0 3.1025-0.0534 3.658-0.57528zm-141.47 13.305c-4.9262-1.5945-8.409-5.2018-9.6602-10.005-0.58092-2.2303-0.5901-94.965-0.01-97.146 1.2333-4.6336 4.9-8.4439 9.5265-9.8995l1.8631-0.58617h65.881c63.203 0 65.946 0.0198 67.469 0.48649 4.7475 1.4549 7.7783 4.3317 9.6282 9.1392l0.67396 1.7514 0.187 27.419-2.5987-0.2158c-3.0947-0.25698-8.0858-0.25653-10.205 8e-4l-1.5214 0.1849v-24.611h-127.26v89.958h92.304l1.2213 2.3151c1.603 3.0387 4.0733 6.469 6.745 9.3659l2.1597 2.3419-52.472-0.0142c-49.569-0.0134-52.552-0.0403-53.927-0.48525zm20.638-25.851c0-0.15735 25.797-37.866 26.21-38.312 0.1217-0.13154 2.7588 3.6128 5.9259 8.4138 3.1386 4.758 5.814 8.5844 5.9454 8.5033 0.13134-0.0812 4.3801-6.3082 9.4418-13.838s9.526-14.14 9.9208-14.69l0.71786-0.99995 8.3616 11.903c4.5989 6.5466 8.4237 12.065 8.4996 12.263 0.0759 0.19781-0.28463 1.4672-0.8012 2.8208-1.0147 2.659-2.0074 6.3803-2.5454 9.5417-0.3844 2.2589-0.47764 9.7653-0.15693 12.634l0.21445 1.9182h-35.867c-19.727 0-35.867-0.0707-35.867-0.15713zm7.2138-43.86c-4.644-1.7666-7.4784-5.8732-7.4784-10.835 0-4.7169 2.4442-8.5095 6.8201-10.582 1.6525-0.78281 1.9763-0.84224 4.557-0.83633 3.2537 7e-3 4.9774 0.55516 7.1487 2.2715 6.8354 5.4031 5.5949 15.905-2.3178 19.622-1.5774 0.74105-2.1001 0.84882-4.434 0.91402-2.2581 0.0631-2.8876-0.018-4.2956-0.55366z"
        fill="#1266f1" />
</svg>