<?xml version="1.0" encoding="UTF-8"?>
<!-- Created with Inkscape (http://www.inkscape.org/) -->
<svg width="55.873mm" height="55.873mm" version="1.1" viewBox="0 0 55.873 55.873" xmlns="http://www.w3.org/2000/svg">
 <rect width="55.873" height="55.873" stroke-linecap="round" stroke-linejoin="round" stroke-width=".86379" style="paint-order:fill markers stroke"/>
 <path d="m13.306 45.716v-5.8928h4.6736v-23.774h-4.6736v-5.8928h18.288q3.2512 0 5.6388 1.1176 2.4384 1.0668 3.7592 3.0988 1.3716 1.9812 1.3716 4.7752v0.508q0 2.4384-0.9144 4.0132-0.9144 1.524-2.1844 2.3876-1.2192 0.8128-2.3368 1.1684v0.9144q1.1176 0.3048 2.4384 1.1684 1.3208 0.8128 2.2352 2.3876 0.9652 1.5748 0.9652 4.1148v0.508q0 2.9464-1.3716 5.08-1.3716 2.0828-3.81 3.2004-2.3876 1.1176-5.588 1.1176zm11.379-6.096h6.2992q2.1844 0 3.5052-1.0668 1.3716-1.0668 1.3716-3.048v-0.508q0-1.9812-1.3208-3.048t-3.556-1.0668h-6.2992zm0-14.834h6.1976q2.0828 0 3.4036-1.0668 1.3716-1.0668 1.3716-2.9464v-0.508q0-1.9304-1.3208-2.9464-1.3208-1.0668-3.4544-1.0668h-6.1976z" fill="#fff" stroke-width=".26458"/>
</svg>
