<?xml version="1.0" encoding="UTF-8"?>
<!-- Created with Inkscape (http://www.inkscape.org/) -->
<svg width="141.07mm" height="141.07mm" version="1.1" viewBox="0 0 141.07 141.07" xmlns="http://www.w3.org/2000/svg">
 <g transform="translate(-426.63 -57.858)">
  <path d="m440.29 75.459a14.093 14.093 0 0 0-6.6125 1.8815 14.093 14.093 0 0 0-7.0466 12.205v13.69l31.616 23.344v-41.054l-10.476-8.1855a14.093 14.093 0 0 0-7.4807-1.8815z" fill="#c5211f"/>
  <path d="m426.63 103.24v68.215a9.8771 9.8771 0 0 0 2.8934 6.9841 9.8771 9.8771 0 0 0 6.9841 2.8934h21.739v-54.749z" fill="#4385f6"/>
  <path d="m458.25 85.526v41.054l38.918 28.736 38.918-28.736v-41.054l-38.918 30.408z" fill="#ec4235"/>
  <path d="m554.04 75.459a14.093 14.093 0 0 1 6.6125 1.8815 14.093 14.093 0 0 1 7.0466 12.205v13.69l-31.616 23.344v-41.054l10.476-8.1855a14.093 14.093 0 0 1 7.4807-1.8815z" fill="#fcbc03"/>
  <path d="m567.7 103.24v68.215a9.8771 9.8771 0 0 1-2.8934 6.9841 9.8771 9.8771 0 0 1-6.9841 2.8934h-21.739v-54.749z" fill="#34a855"/>
 </g>
</svg>
