<?xml version="1.0" encoding="UTF-8"?>
<!-- Created with Inkscape (http://www.inkscape.org/) -->
<svg width="104.85mm" height="55.873mm" version="1.1" viewBox="0 0 104.85 55.873" xmlns="http://www.w3.org/2000/svg">
 <g transform="translate(-32.358 -104.19)" fill="#fff">
  <g fill="#fff" stroke-width=".26458" aria-label="Blog">
   <path d="m32.358 147.26v-5.8928h4.6736v-23.774h-4.6736v-5.8928h18.288q3.2512 0 5.6388 1.1176 2.4384 1.0668 3.7592 3.0988 1.3716 1.9812 1.3716 4.7752v0.508q0 2.4384-0.9144 4.0132-0.9144 1.524-2.1844 2.3876-1.2192 0.8128-2.3368 1.1684v0.9144q1.1176 0.3048 2.4384 1.1684 1.3208 0.8128 2.2352 2.3876 0.9652 1.5748 0.9652 4.1148v0.508q0 2.9464-1.3716 5.08-1.3716 2.0828-3.81 3.2004-2.3876 1.1176-5.588 1.1176zm11.379-6.096h6.2992q2.1844 0 3.5052-1.0668 1.3716-1.0668 1.3716-3.048v-0.508q0-1.9812-1.3208-3.048t-3.556-1.0668h-6.2992zm0-14.834h6.1976q2.0828 0 3.4036-1.0668 1.3716-1.0668 1.3716-2.9464v-0.508q0-1.9304-1.3208-2.9464-1.3208-1.0668-3.4544-1.0668h-6.1976z"/>
   <path d="m67.308 147.26v-35.56h6.4008v35.56z"/>
   <path d="m92.81 147.97q-3.7592 0-6.7564-1.524t-4.7244-4.4196-1.7272-6.9596v-0.8128q0-4.064 1.7272-6.9596t4.7244-4.4196 6.7564-1.524 6.7564 1.524 4.7244 4.4196 1.7272 6.9596v0.8128q0 4.064-1.7272 6.9596t-4.7244 4.4196-6.7564 1.524zm0-5.6896q2.9464 0 4.8768-1.8796 1.9304-1.9304 1.9304-5.4864v-0.508q0-3.556-1.9304-5.4356-1.8796-1.9304-4.8768-1.9304-2.9464 0-4.8768 1.9304-1.9304 1.8796-1.9304 5.4356v0.508q0 3.556 1.9304 5.4864 1.9304 1.8796 4.8768 1.8796z"/>
   <path d="m110.69 134.76v-0.8128q0-3.9624 1.5748-6.7564 1.5748-2.8448 4.1656-4.318 2.6416-1.524 5.7404-1.524 3.4544 0 5.2324 1.2192t2.5908 2.54h0.9144v-3.048h6.2992v29.667q0 2.5908-1.524 4.1148-1.524 1.5748-4.064 1.5748h-16.866v-5.588h14.63q1.4224 0 1.4224-1.524v-6.5532h-0.9144q-0.508 0.8128-1.4224 1.6764-0.9144 0.8128-2.4384 1.3716t-3.8608 0.5588q-3.0988 0-5.7404-1.4732-2.5908-1.524-4.1656-4.318-1.5748-2.8448-1.5748-6.8072zm13.31 7.0104q2.9464 0 4.9276-1.8796t1.9812-5.2832v-0.508q0-3.4544-1.9812-5.2832-1.9304-1.8796-4.9276-1.8796-2.9464 0-4.9276 1.8796-1.9812 1.8288-1.9812 5.2832v0.508q0 3.4036 1.9812 5.2832t4.9276 1.8796z"/>
  </g>
 </g>
</svg>
