<?xml version="1.0" encoding="UTF-8"?>
<svg width="60" height="31.5" version="1.1" viewBox="0 0 60 31.5" xmlns="http://www.w3.org/2000/svg">
 <g transform="translate(12.769 10.967)">
  <rect x="-12.769" y="-10.967" width="60" height="31.5"/>
  <g transform="matrix(.40587 0 0 .40587 -4.5883 -1.1667)" fill="#fff" aria-label="Yewo">
   <path d="m6.08 28.4h12.32v-5.6h-2.92v-5.24l5.76-11.96h3.24v-5.6h-6.96l-5 11.44-4.92-11.44h-7.6v5.6h3.28l5.76 11.96v5.24h-2.96z"/>
   <path d="m35.08 29.32c5.44 0 9.84-2.92 11.24-7.6h-6.12c-1 1.6-2.84 2.56-5 2.56-2.92 0-5.28-1.92-5.52-4.88h17.04c0.12-1.08 0.12-1.56 0.12-2.44 0-6.44-4.52-11.2-11.48-11.2-7 0-11.64 4.72-11.64 11.8 0 7.04 4.6 11.76 11.36 11.76zm-5.36-13.88c0.4-2.6 2.56-4.6 5.68-4.6 3.04 0 5.28 1.84 5.64 4.6z"/>
   <path d="m55.84 28.4h5.48l3.76-13.72 4.48 13.72h5.4l5-16.76h2.68v-4.92h-6.6l-3.92 14.64-4.4-14.64h-4.64l-4.24 14.64-3.92-14.64h-6.88v4.92h2.72z"/>
   <path d="m95.68 29.32c7.08 0 11.84-4.72 11.84-11.8 0-7.04-4.76-11.76-11.84-11.76-7.04 0-11.8 4.72-11.8 11.76 0 7.08 4.76 11.8 11.8 11.8zm0.04-5.36c-3.6 0-6.04-2.56-6.04-6.44 0-3.8 2.44-6.36 6.04-6.36s6 2.56 6 6.36c0 3.88-2.4 6.44-6 6.44z"/>
  </g>
 </g>
</svg>
