<?xml version="1.0" encoding="UTF-8"?>
<!-- Created with Inkscape (http://www.inkscape.org/) -->
<svg width="25.967mm" height="25.967mm" version="1.1" viewBox="0 0 25.967 25.967" xml:space="preserve" xmlns="http://www.w3.org/2000/svg"><path d="m12.983 0c-7.1612 0-12.983 5.823-12.983 12.984 0 7.1612 5.8214 12.983 12.983 12.983s12.984-5.8214 12.984-12.983c0-7.1612-5.823-12.984-12.984-12.984zm-0.79892 1.7079v4.7811c-1.3815-0.023679-2.7257-0.10731-3.975-0.24236 0.20974-0.53598 0.44277-1.0351 0.69556-1.4909 0.93289-1.682 2.0827-2.725 3.2794-3.0479zm1.5994 5.168e-4c1.1964 0.32345 2.347 1.3662 3.2794 3.0474 0.25273 0.45569 0.48587 0.95454 0.69556 1.4903-1.2486 0.13502-2.5924 0.21932-3.975 0.24288zm-5.3206 0.82166c-0.34689 0.44101-0.66659 0.92778-0.95653 1.4506-0.34905 0.62936-0.65973 1.3167-0.92811 2.0521-0.81861-0.12734-1.5756-0.27811-2.251-0.44907 1.1196-1.3093 2.5314-2.3604 4.1357-3.0536zm9.0423 0.00103c1.6036 0.69325 3.0153 1.7442 4.1346 3.053-0.67476 0.17063-1.4319 0.32122-2.2505 0.44856-0.26838-0.73542-0.57905-1.4227-0.92811-2.0521-0.28969-0.52232-0.60933-1.0088-0.95601-1.4495zm-14.191 4.4359c0.82899 0.24295 1.765 0.44881 2.7807 0.61547-0.3718 1.4178-0.59862 2.969-0.65474 4.6013h-3.8117c0.13195-1.9076 0.73157-3.6842 1.6857-5.2167zm19.338 0c0.95439 1.5325 1.5542 3.3091 1.6862 5.2167h-3.8117c-0.05612-1.6323-0.28294-3.1835-0.65474-4.6013 1.0158-0.16667 1.9518-0.37245 2.7802-0.61547zm-4.3806 0.83819c0.36344 1.3275 0.59496 2.8091 0.65422 4.3785h-5.1428v-4.0943c1.5661-0.02452 3.0819-0.12097 4.4886-0.28422zm-10.577 5.166e-4c1.4076 0.16343 2.9241 0.25831 4.4886 0.28267v4.0954h-5.1428c0.059254-1.5692 0.29086-3.0507 0.65422-4.378zm-6.0673 5.9774h3.8122c0.056008 1.6326 0.28288 3.1841 0.65474 4.6018-1.016 0.16688-1.9521 0.37303-2.7807 0.61598-0.95439-1.5327-1.5545-3.3095-1.6862-5.2178zm5.4131 0h5.1428v4.0948c-1.5659 0.02467-3.0821 0.12071-4.4886 0.28422-0.36353-1.3274-0.59506-2.8093-0.65422-4.3791zm6.7422 0h5.1428c-0.05916 1.5696-0.29077 3.0513-0.65422 4.3785-1.4088-0.16384-2.9256-0.25926-4.4886-0.2837zm6.7438 0h3.8122c-0.13169 1.908-0.73175 3.6847-1.6862 5.2173-0.82914-0.24268-1.7654-0.44879-2.7807-0.61547 0.37186-1.4177 0.59873-2.9692 0.65474-4.6018zm-8.3432 5.6947v4.7811c-1.1966-0.32283-2.3465-1.3658-3.2794-3.0479-0.25263-0.45551-0.48541-0.9544-0.69505-1.4898 1.2488-0.13526 2.5919-0.21985 3.9744-0.2434zm1.5994 5.16e-4c1.3811 0.02362 2.7247 0.10686 3.975 0.24185-0.20974 0.53583-0.44276 1.0351-0.69556 1.4909-0.93238 1.6811-2.083 2.7239-3.2794 3.0474zm5.6064 0.45475c0.81796 0.12721 1.575 0.27821 2.251 0.44958-1.1196 1.3092-2.5319 2.3603-4.1362 3.0536 0.34686-0.44085 0.66672-0.92749 0.95653-1.45 0.34922-0.62967 0.66015-1.3175 0.92862-2.0531zm-12.812 1e-3c0.26838 0.73521 0.57905 1.4227 0.92811 2.0521 0.29006 0.523 0.60999 1.0099 0.95705 1.4511-1.6047-0.69302-3.0169-1.7442-4.1367-3.0536 0.67509-0.17094 1.4327-0.32203 2.2515-0.44958z" color="#000000" fill="#fff" stroke-linejoin="round" style="-inkscape-stroke:none"/></svg>
